<svg xmlns="http://www.w3.org/2000/svg" version="1.1" xmlns:xlink="http://www.w3.org/1999/xlink" width="512" height="512" x="0" y="0" viewBox="0 0 128 128" style="enable-background:new 0 0 512 512" xml:space="preserve" class=""><g><linearGradient id="a" x1="18.456" x2="109.545" y1="37.705" y2="90.295" gradientUnits="userSpaceOnUse"><stop offset="0" stop-color="#ff16ff"></stop><stop offset="1" stop-color="#1565ff"></stop></linearGradient><path fill="url(#a)" d="M90.094 20.959H37.912c-4.493 0-8.81 1.785-11.989 4.965s-4.964 7.494-4.964 11.982v52.188c0 4.486 1.785 8.803 4.964 11.982a16.96 16.96 0 0 0 11.989 4.965h52.182a16.95 16.95 0 0 0 16.947-16.947V37.906a16.95 16.95 0 0 0-16.947-16.947zm-11.14 31.486L66.029 78.979a3.932 3.932 0 0 1-5.221 1.811l-9.953-4.844c-1.944-.953-2.751-3.301-1.804-5.232a3.888 3.888 0 0 1 5.221-1.811l6.438 3.131 11.212-23.012c.936-1.945 3.296-2.764 5.228-1.811 1.939.941 2.746 3.277 1.804 5.234z" opacity="1" data-original="url(#a)" class=""></path></g></svg>