<svg xmlns="http://www.w3.org/2000/svg" version="1.1" xmlns:xlink="http://www.w3.org/1999/xlink" width="512" height="512" x="0" y="0" viewBox="0 0 512 512" style="enable-background:new 0 0 512 512" xml:space="preserve" class=""><g><path d="M321.808 214.831c9.765-11.612 24.764-17.431 39.581-15.801l-42.541 158.765c-20.629-5.42-42.057-8.328-63.952-8.328-79.26 0-152.816 36.817-201.818 101.01a6.924 6.924 0 0 0-.703 7.266 6.923 6.923 0 0 0 6.203 3.851h392.64c2.631 0 5.036-1.493 6.203-3.851s.892-5.174-.703-7.266c-32.534-42.616-75.923-73.074-124.582-88.797l42.605-159.003c13.03 5.832 22.678 17.648 25.715 31.793a6.916 6.916 0 0 0 5.328 6.989c.012.003.025.002.038.005.017.005.03.016.047.02 2.59.7 5.352-.173 7.086-2.23 11.239-13.368 29.411-19.073 46.254-14.568 18.095 4.849 31.461 20.627 33.258 39.26a6.918 6.918 0 0 0 6.892 6.255 6.927 6.927 0 0 0 6.64-4.982c.297-1.027.595-2.056.869-3.079 20.807-77.649-23.525-157.664-99.343-181.816l5.684-21.206a6.921 6.921 0 0 0-4.892-8.473 6.917 6.917 0 0 0-8.478 4.892l-5.68 21.198c-77.838-17.172-156.4 29.973-177.241 107.73-.27 1.023-.523 2.045-.775 3.068-.797 3.223.806 6.559 3.824 7.946s6.595.435 8.523-2.266c10.879-15.239 30.339-22.215 48.434-17.372 16.856 4.518 29.726 18.55 32.78 35.747.575 2.897 2.823 5.139 5.613 5.632 3.77.665 6.368-2.246 6.491-2.389zm114.919 232.925H73.07c46.114-53.851 111.617-84.451 181.826-84.451s135.713 30.6 181.831 84.451zM280.505 162.475c-14.636-3.921-29.947-1.919-42.866 4.899 24.585-54.72 82.916-87.259 142.682-79.061-25.973 19.291-47.522 53.25-64.303 101.338-7.739-13.128-20.357-23.116-35.513-27.176zm91.503 24.541c-.073-.023-.136-.06-.211-.08-.019-.005-.038-.005-.057-.009-.029-.008-.057-.021-.087-.029-14.102-3.784-28.859-2.016-41.533 4.278 17.395-48.699 39.602-81.248 66.214-96.981 15.15 26.876 18.127 66.064 8.908 116.796-7.766-11.501-19.446-20.185-33.234-23.975zm125.456 49.973c-7.78-12.361-20.041-21.751-34.668-25.67a58.51 58.51 0 0 0-15.154-1.991c-10.372 0-20.565 2.779-29.526 7.919 9.562-50.168 7.889-90.444-4.991-120.183 56.049 22.703 90.412 80.128 84.339 139.925zm-396.267 43.988c25.609 0 46.443-20.834 46.443-46.443 0-25.607-20.834-46.441-46.443-46.441s-46.443 20.834-46.443 46.441c0 25.609 20.834 46.443 46.443 46.443zm0-79.045c17.978 0 32.605 14.624 32.605 32.603s-14.627 32.605-32.605 32.605-32.605-14.627-32.605-32.605 14.627-32.603 32.605-32.603zm-6.919-37.999v-23.674a6.92 6.92 0 0 1 13.838 0v23.674a6.92 6.92 0 0 1-13.838 0zm51.952 25.57a6.916 6.916 0 0 1 0-9.784l16.739-16.742a6.916 6.916 0 0 1 9.784 0 6.916 6.916 0 0 1 0 9.784l-16.739 16.742a6.898 6.898 0 0 1-4.892 2.027 6.891 6.891 0 0 1-4.892-2.027zm25.569 38.112h23.677a6.92 6.92 0 0 1 0 13.838h-23.677a6.92 6.92 0 0 1 0-13.838zm-15.784 51.95 16.739 16.742a6.916 6.916 0 0 1 0 9.784c-1.351 1.351-3.122 2.027-4.892 2.027s-3.541-.676-4.892-2.027l-16.739-16.742a6.916 6.916 0 0 1 0-9.784 6.916 6.916 0 0 1 9.784 0zm-54.818 18.652a6.92 6.92 0 0 1 6.919 6.919v23.674a6.92 6.92 0 0 1-13.838 0v-23.674a6.92 6.92 0 0 1 6.919-6.919zm-45.033-8.868-16.739 16.742c-1.351 1.351-3.122 2.027-4.892 2.027s-3.541-.676-4.892-2.027a6.916 6.916 0 0 1 0-9.784l16.739-16.742a6.916 6.916 0 0 1 9.784 0 6.916 6.916 0 0 1 0 9.784zm-25.568-47.895H6.919a6.92 6.92 0 0 1 0-13.838h23.677a6.92 6.92 0 0 1 0 13.838zm-.955-68.692a6.916 6.916 0 0 1 0-9.784 6.916 6.916 0 0 1 9.784 0l16.739 16.742a6.916 6.916 0 0 1 0 9.784c-1.351 1.351-3.122 2.027-4.892 2.027s-3.541-.676-4.892-2.027z" fill="#38d344" opacity="1" data-original="#000000" class=""></path></g></svg>