<svg xmlns="http://www.w3.org/2000/svg" version="1.1" xmlns:xlink="http://www.w3.org/1999/xlink" width="512" height="512" x="0" y="0" viewBox="0 0 512 512" style="enable-background:new 0 0 512 512" xml:space="preserve" class=""><g><linearGradient id="a"><stop offset="0" stop-color="#ffdfcf"></stop><stop offset="1" stop-color="#ffa78f"></stop></linearGradient><linearGradient xlink:href="#a" id="d" x1="319.134" x2="331.427" y1="405.128" y2="444.314" gradientUnits="userSpaceOnUse"></linearGradient><linearGradient id="b"><stop offset="0" stop-color="#f89580" stop-opacity="0"></stop><stop offset=".286" stop-color="#ee8e79" stop-opacity=".287"></stop><stop offset=".762" stop-color="#d57b65" stop-opacity=".765"></stop><stop offset=".997" stop-color="#c5715a"></stop></linearGradient><linearGradient xlink:href="#b" id="e" x1="361.553" x2="330.051" y1="438.042" y2="422.932" gradientUnits="userSpaceOnUse"></linearGradient><linearGradient xlink:href="#a" id="f" x1="296.283" x2="326.633" y1="396.843" y2="428.73" gradientUnits="userSpaceOnUse"></linearGradient><linearGradient xlink:href="#b" id="g" x1="337.621" x2="287.486" y1="440.529" y2="408.258" gradientUnits="userSpaceOnUse"></linearGradient><linearGradient xlink:href="#b" id="h" x1="296.759" x2="307.516" y1="415.081" y2="455.035" gradientUnits="userSpaceOnUse"></linearGradient><linearGradient xlink:href="#a" id="i" x1="245.095" x2="283.896" y1="407.338" y2="446.139" gradientUnits="userSpaceOnUse"></linearGradient><linearGradient xlink:href="#b" id="j" x1="281.775" x2="245.15" y1="447.982" y2="418.785" gradientUnits="userSpaceOnUse"></linearGradient><linearGradient xlink:href="#b" id="k" x1="257.847" x2="263.994" y1="425.447" y2="468.219" gradientUnits="userSpaceOnUse"></linearGradient><linearGradient xlink:href="#a" id="l" x1="130.39" x2="178.027" y1="350.854" y2="492.229" gradientUnits="userSpaceOnUse"></linearGradient><linearGradient xlink:href="#b" id="m" x1="113.814" x2="63.097" y1="398.957" y2="398.957" gradientUnits="userSpaceOnUse"></linearGradient><linearGradient xlink:href="#b" id="n" x1="142.477" x2="119.426" y1="340.943" y2="409.326" gradientUnits="userSpaceOnUse"></linearGradient><linearGradient xlink:href="#b" id="o" x1="216.505" x2="248.776" y1="427.038" y2="458.796" gradientUnits="userSpaceOnUse"></linearGradient><linearGradient xlink:href="#b" id="p" x1="186.576" x2="254.958" y1="356.765" y2="402.098" gradientUnits="userSpaceOnUse"></linearGradient><linearGradient xlink:href="#b" id="q" x1="195.267" x2="236.757" y1="361.293" y2="385.88" gradientUnits="userSpaceOnUse"></linearGradient><linearGradient xlink:href="#b" id="r" x1="166.47" x2="202.827" y1="339.105" y2="298.471" gradientUnits="userSpaceOnUse"></linearGradient><linearGradient id="s" x1="6.188" x2="99.026" y1="389.427" y2="389.427" gradientUnits="userSpaceOnUse"><stop offset="0" stop-color="#b3dafe"></stop><stop offset="1" stop-color="#0182fc"></stop></linearGradient><linearGradient id="t" x1="44.311" x2="44.311" y1="458.564" y2="499.391" gradientUnits="userSpaceOnUse"><stop offset="0" stop-color="#314dc9" stop-opacity="0"></stop><stop offset=".276" stop-color="#304bc4" stop-opacity=".276"></stop><stop offset=".563" stop-color="#2b45b8" stop-opacity=".563"></stop><stop offset=".854" stop-color="#243ba3" stop-opacity=".854"></stop><stop offset="1" stop-color="#1f3596"></stop></linearGradient><linearGradient id="u" x1="259.903" x2="406.364" y1="77.378" y2="290.967" gradientUnits="userSpaceOnUse"><stop offset="0" stop-color="#ffa1ae"></stop><stop offset="1" stop-color="#ff4565"></stop></linearGradient><linearGradient id="c"><stop offset="0" stop-color="#fe0364" stop-opacity="0"></stop><stop offset=".234" stop-color="#f90362" stop-opacity=".234"></stop><stop offset=".517" stop-color="#ea035b" stop-opacity=".517"></stop><stop offset=".824" stop-color="#d20250" stop-opacity=".824"></stop><stop offset="1" stop-color="#c00148"></stop></linearGradient><linearGradient xlink:href="#c" id="v" x1="261.412" x2="308.707" y1="96.767" y2="16.925" gradientUnits="userSpaceOnUse"></linearGradient><linearGradient xlink:href="#c" id="w" x1="355.284" x2="433.6" y1="198.347" y2="280.731" gradientUnits="userSpaceOnUse"></linearGradient><linearGradient xlink:href="#c" id="x" x1="286.649" x2="270.376" y1="218.992" y2="342.06" gradientUnits="userSpaceOnUse"></linearGradient><path fill="url(#d)" d="M390.784 400.709c-3.621-12.894-17.004-20.415-29.904-16.792l-9.755 2.739-19.807 28.101c-15.669 22.232-41.341 35.2-68.045 35.2a82.58 82.58 0 0 1-3.145-.068 124.966 124.966 0 0 0 20.788 1.735c12.06 0 24.316-1.704 36.472-5.118l56.605-15.894c12.893-3.62 20.412-17.008 16.791-29.903z" opacity="1" data-original="url(#d)"></path><path fill="url(#e)" d="M390.784 400.709c-3.621-12.894-17.004-20.415-29.904-16.792l-9.755 2.739-19.807 28.101c-15.669 22.232-41.341 35.2-68.045 35.2a82.58 82.58 0 0 1-3.145-.068 124.966 124.966 0 0 0 20.788 1.735c12.06 0 24.316-1.704 36.472-5.118l56.605-15.894c12.893-3.62 20.412-17.008 16.791-29.903z" opacity="1" data-original="url(#e)"></path><path fill="url(#f)" d="M265.253 461.012a82.113 82.113 0 0 1-14.19-1.377c-13.169-2.445-21.862-15.103-19.416-28.271 2.445-13.167 15.105-21.864 28.27-19.416 13.103 2.432 26.585-2.983 34.368-13.791l32.262-44.814c7.826-10.87 22.981-13.337 33.85-5.512s13.337 22.98 5.512 33.85l-32.262 44.814c-15.892 22.073-41.692 34.784-68.394 34.517z" opacity="1" data-original="url(#f)"></path><path fill="url(#g)" d="m328.183 357.48-16.48 16.48-17.419 24.196c-4.952 6.877-12.213 11.558-20.213 13.436l-38.301 38.301a24.165 24.165 0 0 0 15.293 9.741 82.32 82.32 0 0 0 14.19 1.377c26.702.267 52.502-12.444 68.393-34.518l26.601-36.95z" opacity="1" data-original="url(#g)"></path><path fill="url(#h)" d="m328.183 357.48-16.48 16.48-17.419 24.196c-4.952 6.877-12.213 11.558-20.213 13.436l-38.301 38.301a24.165 24.165 0 0 0 15.293 9.741 82.32 82.32 0 0 0 14.19 1.377c26.702.267 52.502-12.444 68.393-34.518l26.601-36.95z" opacity="1" data-original="url(#h)"></path><path fill="url(#i)" d="M220.562 469.559c-.582-.072-1.16-.15-1.742-.234l-44.736-6.503c-13.254-1.926-22.437-14.233-20.51-27.487 1.901-13.078 13.911-22.193 26.962-20.58.175.022.349.045.525.071l44.736 6.502c13.15 1.911 26.447-4.022 33.801-15.129l30.479-46.044c7.393-11.168 22.438-14.23 33.609-6.836 11.167 7.393 14.228 22.44 6.836 33.608l-30.48 46.045c-17.343 26.197-48.386 40.429-79.48 36.587z" opacity="1" data-original="url(#i)"></path><path fill="url(#j)" d="m292.071 369.582-24.355 24.355-8.117 12.262c-4.295 6.487-10.625 11.192-17.762 13.617l-46.147 46.147 23.131 3.362c.582.085 1.16.163 1.742.234 31.094 3.842 62.136-10.39 79.48-36.587l22.073-33.345z" opacity="1" data-original="url(#j)"></path><path fill="url(#k)" d="m292.071 369.582-24.355 24.355-8.117 12.262c-4.295 6.487-10.625 11.192-17.762 13.617l-46.147 46.147 23.131 3.362c.582.085 1.16.163 1.742.234 31.094 3.842 62.136-10.39 79.48-36.587l22.073-33.345z" opacity="1" data-original="url(#k)"></path><path fill="url(#l)" d="M288.651 366.217c-10.336-8.504-25.62-7.017-34.135 3.33l-14.658 17.816c-10.897-5.723-20.64-13.494-29.09-23.259l-2.781-3.201a440.132 440.132 0 0 0 39.933-27.517c12.222-9.463 14.152-27.193 4.333-39.125a27.174 27.174 0 0 0-3.686-3.697c-9.151-7.599-22.429-8.525-32.701-1.735a176.533 176.533 0 0 1-67.569 26.784c-4.096.711-8.267.981-12.417.927-14.216-.162-50.377-.356-62.169 1.821-.108.022-1.681.323-2.35.474-14.421 3.136-27.269 11.306-36.689 22.677l-16.9 20.36V482.46h18.516c20.556 0 40.893-4.215 59.756-12.384a50.27 50.27 0 0 1 26.493-4.473s63.29 7.674 70.026 7.674c24.52 0 48.383-10.886 64.335-30.276l35.072-42.649c8.515-10.337 7.028-25.621-3.319-34.135z" opacity="1" data-original="url(#l)"></path><path fill="url(#m)" d="M149.158 315.453c-.288.051-.573.11-.861.159-4.096.711-8.267.981-12.417.927-14.216-.162-50.377-.356-62.169 1.821-.108.022-1.681.323-2.35.474-14.421 3.136-27.269 11.306-36.689 22.677l-16.9 20.36V482.46h18.516c20.556 0 40.893-4.215 59.756-12.384a50.27 50.27 0 0 1 26.493-4.473s12.294 1.491 26.621 3.158z" opacity="1" data-original="url(#m)"></path><path fill="url(#n)" d="M247.92 333.386a440.272 440.272 0 0 1-39.933 27.517l2.781 3.201c8.45 9.765 18.194 17.536 29.09 23.259l-20.425 24.822a34.33 34.33 0 0 1-5.863 5.615c-17.543-43.992-52.887-77.8-151.24-68.581-12.523 1.174-24.876 1.132-36.775 3.276l9.118-10.983c9.42-11.371 22.268-19.541 36.689-22.677.668-.151 2.242-.453 2.35-.474 11.791-2.177 47.952-1.983 62.169-1.821 4.15.054 8.321-.216 12.417-.927a176.54 176.54 0 0 0 67.569-26.784c10.272-6.79 23.55-5.863 32.701 1.735a27.174 27.174 0 0 1 3.686 3.697c9.817 11.932 7.888 29.662-4.334 39.125z" opacity="1" data-original="url(#n)"></path><path fill="url(#o)" d="M192.566 473.274a82.345 82.345 0 0 1-20.215-2.515l-54.884-13.895c-12.984-3.287-20.845-16.477-17.558-29.461 3.288-12.984 16.48-20.843 29.461-17.558l54.884 13.895c12.913 3.269 26.723-1.265 35.184-11.552l35.08-42.645c8.509-10.344 23.793-11.83 34.135-3.323 10.344 8.508 11.831 23.791 3.323 34.135L256.896 443c-15.949 19.389-39.809 30.274-64.33 30.274z" opacity="1" data-original="url(#o)"></path><path fill="url(#p)" d="M248.569 290.569c-9.154-7.6-22.437-8.525-32.708-1.736a176.458 176.458 0 0 1-67.561 26.776c-4.1.715-8.267.982-12.425.935-5.972-.072-15.827-.147-26.117-.048v96.828c5.539-3.774 12.605-5.252 19.611-3.479l54.884 13.895c12.913 3.269 26.723-1.265 35.184-11.552l20.421-24.825c-10.894-5.724-20.645-13.499-29.094-23.254l-2.781-3.21a439.624 439.624 0 0 0 39.936-27.515c12.225-9.459 14.151-27.196 4.329-39.125a26.79 26.79 0 0 0-3.679-3.69z" opacity="1" data-original="url(#p)"></path><path fill="url(#q)" d="M247.92 333.386a440.272 440.272 0 0 1-39.933 27.517l-86.139 48.243-.011.011c-4.365.269-8.536 1.757-12.082 4.171v-96.831c10.293-.097 20.155-.022 26.126.043 4.15.054 8.321-.216 12.417-.927a176.54 176.54 0 0 0 67.569-26.784c10.272-6.79 23.55-5.863 32.701 1.735a27.174 27.174 0 0 1 3.686 3.697c9.817 11.932 7.888 29.662-4.334 39.125z" opacity="1" data-original="url(#q)"></path><path fill="url(#r)" d="M247.92 333.386a440.272 440.272 0 0 1-39.933 27.517l-86.139 48.243-.011.011c-4.365.269-8.536 1.757-12.082 4.171v-96.831c10.293-.097 20.155-.022 26.126.043 4.15.054 8.321-.216 12.417-.927a176.54 176.54 0 0 0 67.569-26.784c10.272-6.79 23.55-5.863 32.701 1.735a27.174 27.174 0 0 1 3.686 3.697c9.817 11.932 7.888 29.662-4.334 39.125z" opacity="1" data-original="url(#r)"></path><path fill="url(#s)" d="M72.727 494.599H15.895C7.116 494.599 0 487.482 0 478.704V300.15c0-8.778 7.116-15.895 15.895-15.895h56.832c8.778 0 15.895 7.116 15.895 15.895v178.554c-.001 8.778-7.117 15.895-15.895 15.895z" opacity="1" data-original="url(#s)"></path><path fill="url(#t)" d="M88.621 478.704V357.702H0v121.002c0 8.779 7.116 15.895 15.895 15.895h56.832c8.778 0 15.894-7.117 15.894-15.895z" opacity="1" data-original="url(#t)"></path><path fill="url(#u)" d="M482.041 47.358c-42.52-42.52-118.047-38.664-183.15 4.506-65.103-43.171-140.63-47.026-183.15-4.506-51.239 51.239-35.139 150.413 35.96 221.511 44.294 44.294 99.482 67.236 147.19 65.854 47.708 1.382 102.896-21.561 147.19-65.854 71.099-71.098 87.199-170.272 35.96-221.511z" opacity="1" data-original="url(#u)"></path><path fill="url(#v)" d="M260.53 83.318c12.098-12.099 25.011-22.601 38.361-31.453-65.103-43.171-140.63-47.026-183.15-4.506-51.239 51.239-35.139 150.413 35.96 221.511 44.293 44.293 99.482 67.236 147.189 65.854-28.871-.836-55.003-10.578-74.32-29.895-51.239-51.238-35.139-150.412 35.96-221.511z" opacity="1" data-original="url(#v)"></path><path fill="url(#w)" d="M411.104 17.603 155.816 272.892c43.565 41.658 96.834 63.172 143.076 61.832 47.708 1.382 102.896-21.561 147.19-65.854 71.099-71.099 87.198-170.273 35.96-221.511-18.561-18.561-43.412-28.281-70.938-29.756z" opacity="1" data-original="url(#w)"></path><path fill="url(#x)" d="M151.701 268.87c44.294 44.294 99.482 67.236 147.19 65.854 47.708 1.382 102.896-21.561 147.19-65.854 47.319-47.319 70.266-107.07 65.224-156.853H86.477c-5.041 49.783 17.905 109.534 65.224 156.853z" opacity="1" data-original="url(#x)"></path></g></svg>