<svg xmlns="http://www.w3.org/2000/svg" version="1.1" xmlns:xlink="http://www.w3.org/1999/xlink" width="512" height="512" x="0" y="0" viewBox="0 0 512 512" style="enable-background:new 0 0 512 512" xml:space="preserve" class=""><g><path d="M145.723 58a55.58 55.58 0 0 0-.818 9.437c0 30.575 24.798 55.362 55.389 55.362s55.39-24.787 55.39-55.362c0-3.219-.29-6.369-.818-9.437H145.723z" style="" fill="#ffcfab" data-original="#ffcfab" class=""></path><path d="M172.643 67.437c0-3.217.275-6.37.802-9.437h-27.722a55.58 55.58 0 0 0-.818 9.437c0 30.575 24.798 55.362 55.389 55.362 4.79 0 9.438-.608 13.869-1.751-23.879-6.153-41.52-27.823-41.52-53.611z" style="opacity:0.1;enable-background:new ;" fill="#000000" opacity="1" data-original="#000000" class=""></path><path d="M291.711 367.72c-1.722-11.098-8.472-24.394-16.413-32.331l-44.901-44.879H165.12l77.49 77.451c1.196 1.298 3.159 5.167 3.488 6.825l19.717 127.207 45.614-7.064-19.718-127.209z" style="" fill="#34a1d7" data-original="#34a1d7" class=""></path><path d="M268.329 374.786c-.329-1.659-2.292-5.527-3.488-6.825l-77.49-77.451h-22.232l77.49 77.451c1.196 1.298 3.159 5.167 3.488 6.825l19.717 127.207 21.711-3.362-19.196-123.845z" style="opacity:0.1;enable-background:new ;" fill="#000000" opacity="1" data-original="#000000" class=""></path><path d="M327.033 500c.022-.191.059-.378.059-.575v-12.917c0-2.792-2.285-5.075-5.078-5.075h-54.465c-2.793 0-5.078 2.284-5.078 5.075v12.917c0 .197.036.384.059.575h64.503z" style="" fill="#08375e" data-original="#08375e" class=""></path><path d="m153.3 290.51.001 49.663c-.074 1.763-1.422 5.885-2.363 7.292L74.888 451.35l37.251 27.243 76.049-103.884c6.635-9.062 11.27-23.234 11.27-34.464V290.51H153.3z" style="" fill="#34a1d7" data-original="#34a1d7" class=""></path><path d="m153.3 290.51.001 49.663c-.074 1.763-1.422 5.885-2.363 7.292L74.888 451.35l37.251 27.243 5.245-7.165-20.484-14.98 76.051-103.885c.94-1.408 2.289-5.529 2.362-7.292l-.001-54.76-22.012-.001z" style="opacity:0.1;enable-background:new ;" fill="#000000" opacity="1" data-original="#000000" class=""></path><path d="M67.451 470.365 109.796 500h9.583l7.171-10.238c1.603-2.286 1.041-5.467-1.247-7.068l-44.614-31.225c-2.288-1.601-5.47-1.04-7.072 1.246l-7.412 10.582c-1.602 2.285-1.042 5.467 1.246 7.068z" style="" fill="#08375e" data-original="#08375e" class=""></path><path d="M155.607 270.102c0 7.172-5.871 13.039-13.045 13.039h-37.829c-7.176 0-13.045-5.867-13.045-13.039V148.848c0-7.171 5.869-13.038 13.045-13.038h37.829c7.174 0 13.045 5.867 13.045 13.038v121.254z" style="" fill="#cb7c52" data-original="#cb7c52" class=""></path><path d="M119.911 270.102V148.848c0-7.171 5.869-13.038 13.045-13.038h-28.223c-7.176 0-13.045 5.867-13.045 13.038v121.254c0 7.172 5.869 13.039 13.045 13.039h28.223c-7.176 0-13.045-5.868-13.045-13.039z" style="opacity:0.1;" fill="#000000" opacity="1" data-original="#000000" class=""></path><path d="M155.073 295.678a5 5 0 0 1-5-5V157.572c0-25.036 20.378-45.404 45.427-45.404s45.428 20.368 45.428 45.404v133.106a5 5 0 0 1-5 5h-80.855z" style="" fill="#ef5a50" data-original="#ef5a50" class=""></path><path d="M195.5 112.168c-15.229 0-28.722 7.537-36.968 19.066 7.38-5.18 16.357-8.233 26.04-8.233C209.621 123 230 143.368 230 168.404v26.094a68.228 68.228 0 0 0 10.459-16.008 45.85 45.85 0 0 1 .469 6.49v-27.408c0-25.036-20.379-45.404-45.428-45.404z" style="" fill="#ab5436" data-original="#ab5436"></path><path d="M178.815 217.737a67.802 67.802 0 0 1-28.742-6.364v27.408a67.787 67.787 0 0 0 28.742 6.364c27.681 0 51.483-16.531 62.112-40.246V184.98a45.85 45.85 0 0 0-.469-6.49c-10.845 23.176-34.354 39.247-61.643 39.247z" style="" fill="#ab5436" data-original="#ab5436"></path><path d="M344.615 193.333h-70.804c-8.029 0-21.481-5.569-27.158-11.244l-27.117-27.104c-6.759-6.756-17.72-6.756-24.48.001-6.76 6.756-6.76 17.71 0 24.467l27.117 27.103c12.193 12.188 34.392 21.379 51.638 21.379h70.804v-34.602z" style="" fill="#e23c38" data-original="#e23c38" class=""></path><path d="M279.647 211.646c-17.246 0-39.444-9.191-51.638-21.379l-27.117-27.103a17.202 17.202 0 0 1-4.782-9.13c-.358.304-.715.613-1.053.951-6.76 6.756-6.76 17.71 0 24.467l27.117 27.103c12.193 12.188 34.392 21.379 51.638 21.379h70.804v-16.289h-64.969v.001z" style="opacity:0.1;" fill="#000000" opacity="1" data-original="#000000" class=""></path><path d="M367.596 500a8.66 8.66 0 0 0 .216-2V180.083c0-6.358-5.156-11.513-11.518-11.513-6.361 0-11.519 5.155-11.519 11.513V500h22.821z" style="" fill="#cb7c52" data-original="#cb7c52" class=""></path><path d="M371.156 230.933c0 2.791-2.285 5.076-5.078 5.076h-22.154c-2.793 0-5.078-2.284-5.078-5.076v-34.254c0-2.792 2.285-5.075 5.078-5.075h22.154c2.793 0 5.078 2.284 5.078 5.075v34.254z" style="" fill="#ffcfab" data-original="#ffcfab" class=""></path><path d="M125.604 272.71c0 7.171-5.87 13.038-13.045 13.038H95.602c-7.174 0-13.045-5.867-13.045-13.038v-48.241c0-7.171 5.871-13.039 13.045-13.039h16.958c7.175 0 13.045 5.868 13.045 13.039l-.001 48.241z" style="" fill="#ffbb4a" data-original="#ffbb4a"></path><path d="M99.206 272.71v-48.241c0-7.171 5.87-13.039 13.045-13.039H95.602c-7.174 0-13.045 5.868-13.045 13.039v48.241c0 7.171 5.871 13.038 13.045 13.038h16.649c-7.175 0-13.045-5.867-13.045-13.038z" style="opacity:0.1;" fill="#000000" opacity="1" data-original="#000000" class=""></path><path d="M485.635 512H26.365a7.5 7.5 0 0 1 0-15h459.27a7.5 7.5 0 0 1 0 15z" style="" fill="#78a7af" data-original="#78a7af" class=""></path><path d="M169.455 328.139H124.45c-4.143 0-7.5-3.358-7.5-7.5s3.357-7.5 7.5-7.5h45.005c4.143 0 7.5 3.358 7.5 7.5s-3.357 7.5-7.5 7.5zM168.3 353.513h-35.771c-4.143 0-7.5-3.358-7.5-7.5s3.357-7.5 7.5-7.5H168.3a7.5 7.5 0 0 1 0 15zM104.834 165.225H62.137c-4.143 0-7.5-3.358-7.5-7.5s3.357-7.5 7.5-7.5h42.697c4.143 0 7.5 3.358 7.5 7.5s-3.357 7.5-7.5 7.5zM104.834 191.751h-28.85c-4.143 0-7.5-3.358-7.5-7.5s3.357-7.5 7.5-7.5h28.85a7.5 7.5 0 0 1 7.5 7.5c0 4.143-3.357 7.5-7.5 7.5z" style="" fill="#08375e" data-original="#08375e" class=""></path><path d="M300.685 48.403H256v-5.347C256 19.277 236.713 0 212.923 0h-24.94c-23.79 0-43.078 19.277-43.078 43.057v5.347c-4.143 0-7.5 3.358-7.5 7.5s3.357 7.5 7.5 7.5h155.781a7.501 7.501 0 0 0-.001-15.001z" style="" fill="#e23c38" data-original="#e23c38" class=""></path><path d="M154 55.903a7.5 7.5 0 0 1 7.5-7.5v-5.347C161.5 19.277 180.788 0 204.578 0h-16.596c-23.79 0-43.078 19.277-43.078 43.057v5.347c-4.143 0-7.5 3.358-7.5 7.5s3.357 7.5 7.5 7.5H161.5a7.501 7.501 0 0 1-7.5-7.501z" style="opacity:0.1;enable-background:new ;" fill="#000000" opacity="1" data-original="#000000" class=""></path></g></svg>