<svg xmlns="http://www.w3.org/2000/svg" version="1.1" xmlns:xlink="http://www.w3.org/1999/xlink" width="512" height="512" x="0" y="0" viewBox="0 0 64 64" style="enable-background:new 0 0 512 512" xml:space="preserve" class=""><g><linearGradient id="a" x1="11" x2="53" y1="32" y2="32" gradientUnits="userSpaceOnUse"><stop offset="0" stop-color="#fc4a1a"></stop><stop offset="1" stop-color="#f7b733"></stop></linearGradient><path fill="url(#a)" d="M39 45a1 1 0 1 1-1-1 1.001 1.001 0 0 1 1 1zm-9-28a6 6 0 1 1-6-6 6.007 6.007 0 0 1 6 6zm-7-1v-1h3a1 1 0 0 0 0-2h-1a1 1 0 0 0-2 0 2.002 2.002 0 0 0-2 2v1a2.002 2.002 0 0 0 2 2h2v1h-3a1 1 0 0 0 0 2h1a1 1 0 0 0 2 0 2.002 2.002 0 0 0 2-2v-1a2.002 2.002 0 0 0-2-2zm23 24v12H30V40zm-5 5a3 3 0 1 0-4 2.816V49a1 1 0 0 0 2 0v-1.184A2.995 2.995 0 0 0 41 45zm2-10a4.004 4.004 0 0 0-4-4h-2a4.004 4.004 0 0 0-4 4v3h10zM53 6v52a2.002 2.002 0 0 1-2 2H13a2.002 2.002 0 0 1-2-2V6a2.002 2.002 0 0 1 2-2h38a2.002 2.002 0 0 1 2 2zM24 37a1 1 0 0 0-1-1h-5a1 1 0 0 0 0 2h5a1 1 0 0 0 1-1zm0-4a1 1 0 0 0-1-1h-5a1 1 0 0 0 0 2h5a1 1 0 0 0 1-1zm0-4a1 1 0 0 0-1-1h-5a1 1 0 0 0 0 2h5a1 1 0 0 0 1-1zm0-4a8 8 0 1 0-8-8 8.01 8.01 0 0 0 8 8zm24 14a1 1 0 0 0-1-1h-2v-3a6.007 6.007 0 0 0-6-6h-2a6.007 6.007 0 0 0-6 6v3h-2a1 1 0 0 0-1 1v14a1 1 0 0 0 1 1h18a1 1 0 0 0 1-1zm0-25a1 1 0 0 0-1-1H35a1 1 0 0 0-1 1v6a1 1 0 0 0 1 1h12a1 1 0 0 0 1-1zm-12 5h10v-4H36z" data-name="safe payment" opacity="1" data-original="url(#a)" class=""></path></g></svg>