<svg xmlns="http://www.w3.org/2000/svg" version="1.1" xmlns:xlink="http://www.w3.org/1999/xlink" width="512" height="512" x="0" y="0" viewBox="0 0 512 512" style="enable-background:new 0 0 512 512" xml:space="preserve" class=""><g><path fill="#f7f586" d="m474.016 309.8-103.153 69.036-30.742-1.727-1.203-12.097c-1.793-18.012-15.66-32.469-33.582-35.004l-109.063-9.559c-10.687-1.512-33.168-13.398-50.793-23.508-16.71-9.586-35.59-14.746-54.851-14.906l-55.45-.457v135.555l156.954 59.437c5.933 1.676 12.164 2.176 18.25 1.215a1.07 1.07 0 0 1 .11-.02l158.015-22.777a69.941 69.941 0 0 0 33.172-14.86l102.125-91.855c9.168-8.136 10.867-21.816 3.968-31.949-7.543-11.09-22.625-14.004-33.757-6.523zm0 0" opacity="1" data-original="#fae0c1" class=""></path><path fill="#a98888" d="M507.773 316.32a24.211 24.211 0 0 0-2.226-2.804L401.68 389.793a69.947 69.947 0 0 1-33.172 14.863l-158.016 22.778c-.039.003-.074.011-.11.015-6.089.965-12.32.461-18.25-1.215L35.177 366.801v50.332l156.957 59.433c5.93 1.676 12.16 2.18 18.25 1.215.035-.004.07-.011.11-.015l158.015-22.778a69.947 69.947 0 0 0 33.172-14.863l102.125-91.852c9.168-8.14 10.867-21.816 3.968-31.953zm0 0" opacity="1" data-original="#efd0af" class=""></path><path fill="#f43b45" d="M75.867 463.918H10.668C4.778 463.918 0 459.145 0 453.254v-199.07c0-5.891 4.777-10.668 10.668-10.668h65.2c5.89 0 10.667 4.777 10.667 10.668v199.07c0 5.89-4.777 10.664-10.668 10.664zm0 0" opacity="1" data-original="#f43b45" class=""></path><path fill="#cf3735" d="M75.867 243.516H36.29v220.402h39.578c5.89 0 10.668-4.773 10.668-10.664v-199.07c0-5.891-4.777-10.668-10.668-10.668zm0 0" opacity="1" data-original="#cf3735" class=""></path><path fill="#75cff2" d="M388.29 69.902c-25.767-10.695-43.763-34.918-46.224-63.129-.34-3.859-3.617-6.796-7.492-6.773L176.297.93c-3.918.023-7.121 3.066-7.422 6.972-2.172 28.22-19.902 52.618-45.547 63.586-4.34 1.856-6.95 6.34-6.46 11.035 3.597 34.395 24.542 151.497 138.73 204.168a3.57 3.57 0 0 0 1.52.329 3.627 3.627 0 0 0 1.515-.344c113.555-54.004 133.129-171.34 136.32-205.778.442-4.734-2.273-9.175-6.664-10.996zm0 0" opacity="1" data-original="#75cff2" class=""></path><path fill="#53b4e4" d="M388.29 69.902c-25.767-10.695-43.763-34.918-46.224-63.129-.34-3.859-3.617-6.796-7.492-6.773L291.45.254a75.468 75.468 0 0 0 46.457 69.625c4.403 1.832 7.156 6.27 6.715 11.02-2.96 31.93-20.02 135.109-112.992 193.015a235.571 235.571 0 0 0 23.965 12.777 3.6 3.6 0 0 0 1.523.329 3.572 3.572 0 0 0 1.516-.348c113.555-54.004 133.129-171.336 136.32-205.774.442-4.734-2.273-9.175-6.664-10.996zm0 0" opacity="1" data-original="#53b4e4" class=""></path><path fill="#e1e0de" d="M254.914 254.086C176.781 211.68 154.121 133.023 147.625 94.43a4.128 4.128 0 0 1 1.883-4.2A100.969 100.969 0 0 0 193.23 32.8a4.145 4.145 0 0 1 3.961-2.964l116.817-.688a4.151 4.151 0 0 1 3.996 2.922 100.976 100.976 0 0 0 44.394 56.91 4.13 4.13 0 0 1 1.93 4.176c-6.039 38.672-27.765 117.59-105.402 160.906a4.18 4.18 0 0 1-4.012.024zm0 0" opacity="1" data-original="#e1e0de" class=""></path><path fill="#d6d6d6" d="M362.398 88.98a100.976 100.976 0 0 1-44.394-56.91c-.535-1.75-2.168-2.93-3.996-2.922l-47.102.278a100.987 100.987 0 0 0 45.164 59.558 4.112 4.112 0 0 1 1.926 4.164c-5.398 34.567-23.332 101.293-82.531 146.004 7.203 5.336 15 10.348 23.45 14.934a4.18 4.18 0 0 0 4.01-.024C336.564 210.75 358.29 131.829 364.329 93.16a4.129 4.129 0 0 0-1.93-4.18zM61.457 414.95c0 10.827-8.781 19.609-19.61 19.609-10.831 0-19.609-8.782-19.609-19.61 0-10.832 8.778-19.61 19.61-19.61 10.828 0 19.609 8.778 19.609 19.61zm0 0" opacity="1" data-original="#d6d6d6" class=""></path><path fill="#505264" d="M252.406 177.95c2.492-.012 4.965-1.188 6.442-3.415l51.422-77.61a7.726 7.726 0 1 0-12.88-8.534l-46.34 69.933-25.75-24.449a7.727 7.727 0 0 0-10.64 11.207s32.418 30.781 32.43 30.79c1.484 1.41 3.406 2.089 5.316 2.077zm0 0" opacity="1" data-original="#505264" class=""></path><path fill="#a98888" d="M339.238 368.234 180.766 378.81a5.984 5.984 0 0 1-.297-.02c-4.914-.445-9.356-2.77-12.508-6.547-2.844-3.41-7.914-3.87-11.32-1.027a8.044 8.044 0 0 0-1.028 11.324c5.903 7.074 14.215 11.43 23.418 12.262a21.262 21.262 0 0 0 1.828.09c.09 0 .274 0 .36-.004l.226-.012 158.672-17.793zm0 0" opacity="1" data-original="#efd0af" class=""></path></g></svg>