<svg xmlns="http://www.w3.org/2000/svg" version="1.1" xmlns:xlink="http://www.w3.org/1999/xlink" width="512" height="512" x="0" y="0" viewBox="0 0 64 64" style="enable-background:new 0 0 512 512" xml:space="preserve" class=""><g><linearGradient id="a" x1="3.99" x2="59.99" y1="32" y2="32" gradientUnits="userSpaceOnUse"><stop offset="0" stop-color="#ffde00"></stop><stop offset="1" stop-color="#fd5900"></stop></linearGradient><path fill="url(#a)" d="M38.038 58.17h-26.87c-4.63.132-8.432-4.864-6.788-9.246A25.43 25.43 0 0 1 22.523 32.44C8.837 26.015 13.11 5.485 28.451 5.27c15.324.223 19.621 20.713 5.948 27.16a23.483 23.483 0 0 1 2.56.77 11.214 11.214 0 0 0-.96.83 15.428 15.428 0 0 0 2.039 24.14zM59.99 45.296A13.44 13.44 0 1 1 46.545 31.85 13.454 13.454 0 0 1 59.99 45.295zm-6.018 5.948-4.168-4.158a6.284 6.284 0 0 0 1.23-3.749 6.39 6.39 0 0 0-6.388-6.378c-8.447.296-8.433 12.468 0 12.766a6.33 6.33 0 0 0 3.748-1.23l4.159 4.159a1 1 0 0 0 1.42-1.41zm-13.705-7.907a4.384 4.384 0 0 0 8.767 0 4.384 4.384 0 0 0-8.767 0z" opacity="1" data-original="url(#a)" class=""></path></g></svg>